<?xml version="1.0" encoding="UTF-8"?><svg id="Layer_1" xmlns="http://www.w3.org/2000/svg" viewBox="0 0 516.7 365.6"><defs><style>.cls-1{fill:none;}.cls-1,.cls-2{stroke:#231f20;stroke-miterlimit:10;stroke-width:2px;}.cls-2{fill:#231f20;}</style></defs><path class="cls-1" d="m1,1h514.7v363.6H1V1Z"/><path class="cls-2" d="m128.9,59.9h96v7.9s-27.2-2.5-32.6,10c0,0-1.8,5.4-1.1,23.3v75.9h130.4v-90.3s6.1-19.7-31.2-19.7l.7-7.2h92.8v7.5s-26.5-3.6-26.5,19v195.2s-2.5,18.6,26.5,17.6v6.4h-93.5l-.7-7.5s30.8,4.3,31.5-16.5,1.1-96.2,1.1-96.2h-131.8l-.4,93s-3.2,22.6,29.4,20.8l.7,6.4h-91.3v-6.4s26.5,3.6,26.1-21.5l-.4-196.7s1.1-14.7-25.8-14.3v-6.8Z"/></svg>