<?xml version="1.0" standalone="no"?>
<!DOCTYPE svg PUBLIC "-//W3C//DTD SVG 20010904//EN"
 "http://www.w3.org/TR/2001/REC-SVG-20010904/DTD/svg10.dtd">
<svg version="1.0" xmlns="http://www.w3.org/2000/svg"
 width="1034.000000pt" height="1034.000000pt" viewBox="0 0 1034.000000 1034.000000"
 preserveAspectRatio="xMidYMid meet">
<metadata>
Created by potrace 1.14, written by Peter Selinger 2001-2017
</metadata>
<g transform="translate(0.000000,1034.000000) scale(0.100000,-0.100000)"
fill="#000000" stroke="none">
<path d="M0 5170 l0 -3660 5170 0 5170 0 0 3660 0 3660 -5170 0 -5170 0 0
-3660z m10300 3573 c0 -27 0 -55 0 -63 1 -8 1 -44 1 -80 -1 -36 -1 -72 0 -80
0 -8 0 -44 0 -80 -1 -36 -1 -72 0 -80 0 -8 0 -44 0 -80 -1 -36 -1 -72 0 -80 0
-8 0 -44 0 -80 -1 -36 -1 -72 0 -80 0 -8 0 -44 0 -80 -1 -36 -1 -72 0 -80 0
-8 0 -44 0 -80 -1 -36 -1 -72 0 -80 0 -8 0 -44 0 -80 -1 -36 -1 -72 0 -80 0
-8 0 -44 0 -80 -1 -36 -1 -72 0 -80 0 -8 0 -44 0 -80 -1 -36 -1 -72 0 -80 0
-8 0 -44 0 -80 -1 -36 -1 -72 0 -80 0 -8 0 -44 0 -80 -1 -36 -1 -72 0 -80 0
-8 0 -44 0 -80 -1 -36 -1 -72 0 -80 0 -8 0 -44 0 -80 -1 -36 -1 -72 0 -80 0
-8 0 -44 0 -80 -1 -36 -1 -72 0 -80 0 -8 0 -44 0 -80 -1 -36 -1 -72 0 -80 0
-8 0 -44 0 -80 -1 -36 -1 -72 0 -80 0 -8 0 -44 0 -80 -1 -36 -1 -72 0 -80 0
-8 0 -44 0 -80 -1 -36 -1 -72 0 -80 0 -8 0 -44 0 -80 -1 -36 -1 -72 0 -80 0
-8 0 -44 0 -80 -1 -36 -1 -72 0 -80 0 -8 0 -44 0 -80 -1 -36 -1 -72 0 -80 0
-8 0 -44 0 -80 -1 -36 -1 -72 0 -80 0 -8 0 -44 0 -80 -1 -36 -1 -72 0 -80 0
-8 0 -44 0 -80 -1 -36 -1 -72 0 -80 0 -8 0 -44 0 -80 -1 -36 -1 -72 0 -80 0
-8 0 -44 0 -80 -1 -36 -1 -72 0 -80 0 -8 0 -44 0 -80 -1 -36 -1 -72 0 -80 0
-8 0 -44 0 -80 -1 -36 -1 -72 0 -80 0 -8 0 -44 0 -80 -1 -36 -1 -72 0 -80 0
-8 0 -44 0 -80 -1 -36 -1 -72 0 -80 0 -8 0 -44 0 -80 -1 -36 -1 -72 0 -80 0
-8 0 -44 0 -80 -1 -36 -1 -72 0 -80 0 -8 0 -44 0 -80 -1 -36 -1 -72 0 -80 0
-8 0 -44 0 -80 -1 -36 -1 -72 0 -80 0 -8 0 -44 0 -80 -1 -36 -1 -72 0 -80 0
-8 0 -44 0 -80 -1 -36 -1 -72 0 -80 0 -8 0 -44 0 -80 -1 -36 -1 -72 0 -80 0
-8 0 -44 0 -80 -1 -36 -1 -72 0 -80 0 -8 0 -44 0 -80 -1 -36 -1 -72 0 -80 0
-8 0 -44 0 -80 -1 -36 -1 -72 0 -80 0 -8 0 -44 0 -80 -1 -36 -1 -72 0 -80 0
-8 0 -44 0 -80 -1 -36 -1 -72 0 -80 0 -8 0 -44 0 -80 -1 -36 -1 -72 0 -80 0
-20 0 -149 -1 -175 0 -11 0 -32 0 -48 l0 -27 -5129 0 -5130 0 -1 53 c0 28 -1
59 -1 67 0 8 0 24 1 35 1 11 1 46 0 78 -1 33 1 61 3 64 3 2 1 18 -3 34 -5 16
-5 29 -2 29 4 0 6 17 4 38 -1 20 -3 44 -3 52 0 8 0 44 0 80 -1 76 -1 79 1 105
1 11 1 46 0 78 -1 33 1 61 3 64 3 2 1 18 -3 34 -5 16 -5 29 -2 29 4 0 6 17 4
38 -1 20 -3 44 -3 52 0 8 0 44 0 80 -1 76 -1 79 1 105 1 11 1 46 0 78 -1 33 1
61 3 64 3 2 1 18 -3 34 -5 16 -5 29 -2 29 4 0 6 17 4 38 -1 20 -3 44 -3 52 0
8 0 44 0 80 -1 76 -1 79 1 105 1 11 1 46 0 78 -1 33 1 61 3 64 3 2 1 18 -3 34
-5 16 -5 29 -2 29 4 0 6 17 4 37 -1 21 -3 45 -3 53 0 8 0 44 0 80 -1 76 -1 79
1 105 1 11 1 46 0 78 -1 33 1 61 3 64 3 2 1 18 -3 34 -5 16 -5 29 -2 29 4 0 6
17 4 38 -1 20 -3 44 -3 52 0 8 0 44 0 80 -1 76 -1 79 1 105 1 11 1 46 0 78 -1
33 1 61 3 64 3 2 1 18 -3 34 -5 16 -5 29 -2 29 4 0 6 17 4 38 -1 20 -3 44 -3
52 0 8 0 44 0 80 -1 76 -1 79 1 105 1 11 1 46 0 78 -1 33 1 61 3 64 3 2 1 18
-3 34 -5 16 -5 29 -2 29 4 0 6 17 4 38 -1 20 -3 44 -3 52 0 8 0 44 0 80 -1 76
-1 79 1 105 1 11 1 46 0 78 -1 33 1 61 3 64 3 2 1 18 -3 34 -5 16 -5 29 -2 29
4 0 6 17 4 38 -1 20 -3 44 -3 52 0 8 0 44 0 80 -1 76 -1 79 1 105 1 11 1 46 0
78 -1 33 1 61 3 64 3 2 1 18 -3 34 -5 16 -5 29 -2 29 4 0 6 17 4 38 -1 20 -3
44 -3 52 0 8 0 44 0 80 -1 76 -1 79 1 105 1 11 1 46 0 78 -1 33 1 61 3 64 3 2
1 18 -3 34 -5 16 -5 29 -2 29 4 0 6 17 4 38 -1 20 -3 44 -3 52 0 8 0 44 0 80
-1 76 -1 79 1 105 1 11 1 46 0 78 -1 33 1 61 3 64 3 2 1 18 -3 34 -5 16 -5 29
-2 29 4 0 6 17 4 38 -1 20 -3 44 -3 52 0 8 0 44 0 80 -1 76 -1 79 1 105 1 11
1 46 0 78 -1 33 1 61 3 64 3 2 1 18 -3 34 -5 16 -5 29 -2 29 4 0 6 17 4 38 -1
20 -3 44 -3 52 0 8 0 44 0 80 -1 76 -1 79 1 105 1 11 1 46 0 78 -1 33 1 61 3
64 3 2 1 18 -3 34 -5 16 -5 29 -2 29 4 0 6 17 4 38 -1 20 -3 44 -3 52 0 8 0
44 0 80 -1 76 -1 79 1 105 1 11 1 46 0 78 -1 33 1 61 3 64 3 2 1 18 -3 34 -5
16 -5 29 -2 29 4 0 6 17 4 38 -1 20 -3 44 -3 52 0 8 0 44 0 80 -1 36 0 74 1
85 1 22 1 23 0 101 -1 31 1 58 3 61 3 2 1 18 -3 34 -5 16 -5 29 -2 29 7 0 7
56 1 86 -1 5 -1 24 0 41 l1 33 5130 0 5131 0 -1 -47z"/>
<path d="M2559 7663 c-5 -40 -2 -167 3 -176 4 -7 39 -12 80 -13 214 -6 352
-66 410 -179 21 -40 21 -47 24 -1635 2 -877 3 -1676 3 -1775 0 -99 0 -189 0
-200 3 -502 3 -493 -19 -573 -33 -124 -157 -222 -312 -246 -55 -9 -164 -10
-177 -2 -7 5 -11 -4 -12 -26 -1 -34 1 -115 3 -134 1 -8 270 -10 932 -10 l931
1 -4 55 c-2 30 -4 65 -5 77 -1 12 -4 25 -7 28 -4 3 -60 7 -125 10 -229 7 -356
71 -426 213 l-33 67 2 540 c1 297 2 735 3 972 l1 433 22 5 c12 2 596 3 1297 2
l1275 -2 -1 -480 c-2 -565 -13 -1368 -19 -1442 -15 -158 -125 -251 -340 -287
-69 -11 -205 -13 -257 -3 -25 5 -31 0 -30 -23 3 -52 15 -156 19 -160 2 -3 432
-5 954 -6 853 0 949 1 950 15 5 81 2 144 -6 147 -5 2 -53 6 -105 8 -100 5
-134 10 -175 26 -14 5 -25 8 -25 5 0 -2 -25 9 -56 26 -68 37 -106 76 -136 138
l-23 46 0 2045 1 2045 22 55 c26 64 86 131 147 163 68 35 139 48 268 50 71 1
87 4 88 16 1 9 2 51 2 93 2 63 -1 78 -13 79 -95 5 -1873 2 -1877 -3 -6 -12
-12 -43 -18 -114 -5 -57 -4 -64 12 -65 231 -9 282 -17 403 -60 103 -37 189
-119 205 -196 4 -15 6 -48 4 -73 -1 -25 -2 -447 -3 -937 0 -613 -3 -893 -11
-894 -57 -5 -2534 -3 -2545 2 -13 6 -15 117 -14 916 0 499 4 928 7 953 16 107
22 117 87 169 41 32 114 66 165 77 106 22 154 27 283 28 138 1 143 4 132 66
-4 21 -4 43 0 47 4 4 5 25 3 46 l-5 37 -969 0 c-639 0 -969 3 -969 10 0 11
-20 14 -21 3z"/>
</g>
</svg>
